<?xml version="1.0" encoding="utf-8"?>
<!-- Generator: Adobe Illustrator 24.0.1, SVG Export Plug-In . SVG Version: 6.00 Build 0)  -->
<svg version="1.1" id="Bold" xmlns="http://www.w3.org/2000/svg" xmlns:xlink="http://www.w3.org/1999/xlink" x="0px" y="0px"
	 viewBox="0 0 512 512" style="enable-background:new 0 0 512 512;" xml:space="preserve">
<path d="M263.7,347.1c0-39.4-18.8-68.6-57.5-79.5c28.3-13.5,43-33.9,43-65.6c0-62.5-46.8-77.8-100.7-77.8H0v314h152.7
	C210,438.3,263.7,410.9,263.7,347.1L263.7,347.1z M69.2,177.8h65c25,0,47.5,7,47.5,35.9c0,26.7-17.5,37.4-42.2,37.4H69.2V177.8z
	 M69.2,384.9v-86.5h75.5c30.5,0,49.8,12.7,49.8,44.8c0,31.7-23,41.6-51.2,41.6H69.2V384.9z"/>
<path d="M401,438.3c54.5,0,89.8-24.5,106.8-76.5h-55.3c-6,19.4-30.5,29.7-49.5,29.7c-36.7,0-56-21.4-56-57.9h164.5
	c5.2-72.9-35.4-135.1-110.5-135.1c-69.5,0-116.7,52.1-116.7,120.3C284.2,389.7,329,438.3,401,438.3z M399,245.7
	c31.5,0,47.3,18.4,49.9,48.6H347C349.1,264.4,369,245.7,399,245.7L399,245.7z"/>
<path d="M334.2,99.5H462v30.9H334.2V99.5z"/>
</svg>
