<?xml version="1.0" encoding="utf-8"?>
<!-- Generator: Adobe Illustrator 24.0.1, SVG Export Plug-In . SVG Version: 6.00 Build 0)  -->
<svg version="1.1" id="Bold" xmlns="http://www.w3.org/2000/svg" xmlns:xlink="http://www.w3.org/1999/xlink" x="0px" y="0px"
	 viewBox="0 0 512 512" style="enable-background:new 0 0 512 512;" xml:space="preserve">
<g>
	<path d="M450.7,429.7L450.7,429.7L450.7,429.7l0.1-142.9c0-69.9-15-123.7-96.7-123.7c-39.3,0-65.6,21.6-76.4,42h-1.1v-35.5H199v260
		h80.7V301c0-33.9,6.4-66.7,48.4-66.7c41.4,0,42,38.7,42,68.9v126.6L450.7,429.7z"/>
	<path d="M67.7,169.7h80.8v260H67.7V169.7z"/>
	<path d="M108,40.2c-25.8,0-46.8,21-46.8,46.8s21,47.2,46.8,47.2s46.8-21.4,46.8-47.2C154.8,61.2,133.8,40.2,108,40.2z"/>
</g>
</svg>
